<?xml version="1.0" encoding="utf-8"?>
<!-- Generator: Adobe Illustrator 28.2.0, SVG Export Plug-In . SVG Version: 6.00 Build 0)  -->
<svg version="1.1" xmlns="http://www.w3.org/2000/svg" xmlns:xlink="http://www.w3.org/1999/xlink" x="0px" y="0px"
	 viewBox="0 0 775 775" style="enable-background:new 0 0 775 775;" xml:space="preserve">
<style type="text/css">
	.st0{display:none;}
	.st1{display:none;fill:#D1D3DA;stroke:#4F525F;stroke-width:36;stroke-linecap:round;stroke-linejoin:round;stroke-miterlimit:10;}
	.st2{display:none;opacity:0.43;}
	.st3{fill:none;stroke:#447FF7;stroke-width:30;stroke-linecap:round;stroke-miterlimit:10;}
	.st4{fill:#D6D8DD;stroke:#3A4966;stroke-width:20;stroke-linecap:round;stroke-linejoin:round;stroke-miterlimit:10;}
	.st5{display:inline;fill:none;stroke:#5478BB;stroke-width:36;stroke-linecap:round;stroke-miterlimit:10;}
	.st6{display:none;fill:none;stroke:#010101;stroke-width:36;stroke-linecap:round;stroke-miterlimit:10;}
	.st7{display:none;fill:none;stroke:#231F20;stroke-linecap:round;stroke-miterlimit:10;}
	
		.st8{display:inline;fill:#D1D3DA;stroke:#4F525F;stroke-width:36;stroke-linecap:round;stroke-linejoin:round;stroke-miterlimit:10;}
	.st9{fill:none;stroke:#3A4966;stroke-width:20;stroke-linecap:round;stroke-linejoin:round;stroke-miterlimit:10;}
	.st10{fill:#447FF7;stroke:#3A4966;stroke-width:20;stroke-linecap:round;stroke-linejoin:round;stroke-miterlimit:10;}
	.st11{fill:#FFFFFF;stroke:#3A4966;stroke-width:42;stroke-linecap:round;stroke-linejoin:round;stroke-miterlimit:10;}
	.st12{fill:none;stroke:#FFFFFF;stroke-width:30;stroke-linecap:round;stroke-miterlimit:10;}
</style>
<g id="Layer_1">
	<path class="st11" d="M396.5,747.5c-203.4,0-369-165.6-369-369.1C27.5,216,131.9,76,282.3,27.5c-58.2,60.9-91.8,142.9-91.8,228.3
		c0,181.7,147.3,329.5,328.3,329.5c85.8,0,168.1-34.2,228.8-93.4C699.4,642.8,559.3,747.5,396.5,747.5L396.5,747.5z"/>
	<line class="st3" x1="297.6" y1="281.3" x2="297.6" y2="313.3"/>
	<line class="st3" x1="717.3" y1="281.3" x2="717.3" y2="313.3"/>
	<line class="st3" x1="357.5" y1="207.5" x2="357.5" y2="387.1"/>
	<line class="st3" x1="417.5" y1="233.4" x2="417.5" y2="361.2"/>
	<line class="st3" x1="477.4" y1="281.3" x2="477.4" y2="313.3"/>
	<line class="st3" x1="535.6" y1="265.7" x2="535.6" y2="329.6"/>
	<line class="st3" x1="597.4" y1="207.9" x2="597.4" y2="387.5"/>
	<line class="st3" x1="657.3" y1="233.4" x2="657.3" y2="361.2"/>
</g>
<g id="guides" class="st0">
</g>
</svg>
