<svg version="1.1" xmlns="http://www.w3.org/2000/svg" xmlns:xlink="http://www.w3.org/1999/xlink" x="0px" y="0px"
	viewBox="0 0 1200 1200" width="100%" height="100%" xml:space="preserve">
	<path d="M864.2,587.3c0-15.4-12.5-27.8-27.8-27.8s-27.8,12.5-27.8,27.8c0,114.9-93.5,208.5-208.5,208.5h-0.5
		c-114.9,0-208.5-93.6-208.5-208.5c0-15.4-12.5-27.8-27.8-27.8s-27.8,12.5-27.8,27.8c0,136.3,103.8,248.9,236.4,262.8v78.2h-81.6
		c-15.4,0-27.8,12.5-27.8,27.8s12.5,27.8,27.8,27.8h218.9c15.4,0,27.8-12.5,27.8-27.8s-12.5-27.8-27.8-27.8h-81.6v-78.2
		c132.7-13.9,236.4-126.5,236.4-262.8L864.2,587.3z"/>
	<path d="M600,744c86.4,0,156.7-70.3,156.7-156.7V372.7c0-86.4-70.3-156.7-156.7-156.7s-156.7,70.3-156.7,156.7v214.5
		C443.3,673.7,513.6,744,600,744z M498.9,372.7c0-55.7,45.4-101.1,101.1-101.1S701.1,317,701.1,372.7v214.6
		c0,55.8-45.4,101.1-101.1,101.1s-101.1-45.4-101.1-101.1V372.7z"/>
</svg>