<svg version="1.1" xmlns="http://www.w3.org/2000/svg" xmlns:xlink="http://www.w3.org/1999/xlink" x="0px" y="0px"
	viewBox="0 0 1200 1200" width="100%" height="100%" xml:space="preserve">
	<path d="M627.8,861.8c0.1-15.3-12.4-27.8-27.8-27.8s-27.8,12.4-27.8,27.8v85.4c0,7.6,3.1,14.7,8.2,19.7c5,5,12.1,8.2,19.7,8.2
		c15.4,0,27.8-12.4,27.8-27.8L627.8,861.8z"/>
	<path d="M434.5,765.4c-10.9-10.9-28.5-10.9-39.4,0l-60.4,60.4c-10.9,10.9-10.9,28.5,0,39.4c10.9,10.9,28.5,10.9,39.4,0l60.4-60.4
		C445.4,793.9,445.4,776.3,434.5,765.4z"/>
	<path d="M338.2,572.2h-85.4c-15.4,0-27.8,12.4-27.8,27.8c0,7.6,3.1,14.7,8.2,19.7c5,5,12.1,8.2,19.7,8.2h85.4
		c15.4,0,27.8-12.4,27.8-27.8C365.9,584.7,353.6,572.2,338.2,572.2L338.2,572.2z"/>
	<path d="M434.5,434.7c10.9-10.9,10.9-28.5,0-39.4l-60.4-60.4c-10.9-10.9-28.5-10.9-39.4,0c-10.9,10.9-10.9,28.5,0,39.4l60.4,60.4
		C406,445.5,423.6,445.5,434.5,434.7z"/>
	<path d="M572,338.4c0,7.6,3.1,14.7,8.2,19.7c5,5,12.1,8.2,19.7,8.2c15.4,0,27.8-12.4,27.8-27.8V253c0.1-15.3-12.4-27.8-27.8-27.8
		S572,237.5,572,253L572,338.4z"/>
	<path d="M765.2,434.7c10.9,10.9,28.5,10.9,39.4,0l60.4-60.4c10.9-10.9,10.9-28.5,0-39.4c-10.9-10.9-28.5-10.9-39.4,0l-60.4,60.4
		C754.3,406.2,754.3,423.8,765.2,434.7z"/>
	<path d="M765.7,805.2l60.4,60.4c10.9,10.9,28.5,10.9,39.4,0s10.9-28.5,0-39.4l-60.4-60.4c-10.9-10.9-28.5-10.9-39.4,0
		S754.8,794.4,765.7,805.2z"/>
	<path d="M947.4,628.3c15.4,0,27.8-12.4,27.8-27.8c0-15.4-12.5-27.9-27.8-27.8H862c-15.4,0-27.8,12.4-27.8,27.8
		c0,7.6,3.1,14.7,8.2,19.7c5,5,12.1,8.2,19.7,8.2L947.4,628.3z"/>
</svg>
