<svg version="1.1" xmlns="http://www.w3.org/2000/svg" xmlns:xlink="http://www.w3.org/1999/xlink" x="0px" y="0px"
	viewBox="0 0 1200 1200" width="100%" height="100%" xml:space="preserve">
	<path d="M725.3,954.5c-3.4,0-6.7-0.6-10.1-1.9c-11.5-4.5-18.7-15.9-17.6-28.2l10.7-132.7H310.8c-52.3,0-94.8-42.6-94.8-94.8V340.3
		c0-52.3,42.6-94.8,94.8-94.8h578.3c52.3,0,94.8,42.6,94.8,94.8v356.5c0,52.3-42.6,94.8-94.8,94.8h-24.6L747.2,943.5
		c-5.4,6.9-13.5,10.8-22.1,10.8L725.3,954.5z M310.8,301.2c-21.6,0-39.2,17.5-39.2,39.1v356.5c0,21.6,17.5,39.1,39.2,39.1h427.5
		c7.8,0,15.2,3.2,20.4,9c5.3,5.8,7.9,13.3,7.3,21.1l-5.6,69.2l68.3-88.5c5.3-6.8,13.5-10.8,22.1-10.8h38.3
		c21.6,0,39.2-17.5,39.2-39.1V340.5c0-21.6-17.5-39.1-39.2-39.1L310.8,301.2L310.8,301.2z"/>
	<path class="moonshine-transcribe-1" d="M472,494.4c16.9,16.9,16.9,44.3,0,61.2c-16.9,16.9-44.3,16.9-61.2,0c-16.9-16.9-16.9-44.3,0-61.2
		C427.6,477.5,455.1,477.5,472,494.4"/>
	<path class="moonshine-transcribe-2" d="M630.6,494.4c16.9,16.9,16.9,44.3,0,61.2c-16.9,16.9-44.3,16.9-61.2,0c-16.9-16.9-16.9-44.3,0-61.2
		C586.3,477.4,613.7,477.4,630.6,494.4"/>
	<path class="moonshine-transcribe-3" d="M789.2,494.3c16.9,16.9,16.9,44.3,0,61.2c-16.9,16.9-44.3,16.9-61.2,0c-16.9-16.9-16.9-44.3,0-61.2
		C744.9,477.4,772.3,477.4,789.2,494.3"/>
</svg>
